<?xml version="1.0" encoding="utf-8"?>
<!-- Generator: Adobe Illustrator 19.2.0, SVG Export Plug-In . SVG Version: 6.00 Build 0)  -->
<svg version="1.1" id="Layer_1" xmlns="http://www.w3.org/2000/svg" xmlns:xlink="http://www.w3.org/1999/xlink" x="0px" y="0px"
	 viewBox="0 0 30 30" style="enable-background:new 0 0 30 30;" xml:space="preserve">
<style type="text/css">
	.st0{fill:#FFFFFF;}
</style>
<g>
	<path class="st0" d="M28.2,23.1c0,0.6-0.2,1.1-0.6,1.5l-3,3c-0.4,0.4-0.9,0.6-1.5,0.6c-0.6,0-1.1-0.2-1.5-0.6L15,21.1l-6.5,6.5
		C8,28,7.5,28.2,6.9,28.2S5.8,28,5.4,27.6l-3-3c-0.4-0.4-0.6-0.9-0.6-1.5c0-0.6,0.2-1.1,0.6-1.5L8.9,15L2.4,8.5C2,8,1.8,7.5,1.8,6.9
		S2,5.8,2.4,5.4l3-3C5.8,2,6.4,1.8,6.9,1.8S8,2,8.5,2.4L15,8.9l6.5-6.5C22,2,22.5,1.8,23.1,1.8c0.6,0,1.1,0.2,1.5,0.6l3,3
		c0.4,0.4,0.6,0.9,0.6,1.5S28,8,27.6,8.5L21.1,15l6.5,6.5C28,22,28.2,22.5,28.2,23.1z"/>
</g>
</svg>
