<?xml version="1.0" encoding="utf-8"?>
<!-- Generator: Adobe Illustrator 19.2.0, SVG Export Plug-In . SVG Version: 6.00 Build 0)  -->
<svg version="1.1" id="Layer_1" xmlns="http://www.w3.org/2000/svg" xmlns:xlink="http://www.w3.org/1999/xlink" x="0px" y="0px"
	 viewBox="0 0 30 30" style="enable-background:new 0 0 30 30;" xml:space="preserve">
<style type="text/css">
	.st0{fill:#FFFFFF;}
</style>
<g>
	<path class="st0" d="M28.5,26.3c0,0.6-0.2,1.1-0.6,1.5c-0.4,0.4-0.9,0.7-1.5,0.7c-0.6,0-1.1-0.2-1.5-0.7L18.9,22
		c-2,1.4-4.3,2.1-6.8,2.1c-1.6,0-3.2-0.3-4.7-1c-1.5-0.6-2.8-1.5-3.9-2.6S1.6,18.2,1,16.7c-0.6-1.5-1-3.1-1-4.7c0-1.6,0.3-3.2,1-4.7
		c0.6-1.5,1.5-2.8,2.6-3.9S5.9,1.6,7.4,1c1.5-0.6,3.1-1,4.7-1c1.6,0,3.2,0.3,4.7,1c1.5,0.6,2.8,1.5,3.9,2.6s1.9,2.4,2.6,3.9
		c0.6,1.5,1,3.1,1,4.7c0,2.5-0.7,4.8-2.1,6.8l5.9,5.9C28.3,25.2,28.5,25.7,28.5,26.3z M17.5,17.5c1.5-1.5,2.3-3.3,2.3-5.4
		c0-2.1-0.8-3.9-2.3-5.4c-1.5-1.5-3.3-2.3-5.4-2.3c-2.1,0-3.9,0.8-5.4,2.3c-1.5,1.5-2.3,3.3-2.3,5.4c0,2.1,0.8,3.9,2.3,5.4
		c1.5,1.5,3.3,2.3,5.4,2.3C14.2,19.7,16,19,17.5,17.5z"/>
</g>
</svg>
