<?xml version="1.0" encoding="utf-8"?>
<!-- Generator: Adobe Illustrator 19.2.0, SVG Export Plug-In . SVG Version: 6.00 Build 0)  -->
<svg version="1.1" id="Layer_1" xmlns="http://www.w3.org/2000/svg" xmlns:xlink="http://www.w3.org/1999/xlink" x="0px" y="0px"
	 viewBox="0 0 30 30" style="enable-background:new 0 0 30 30;" xml:space="preserve">
<style type="text/css">
	.st0{fill:#FFFFFF;stroke:#000000;stroke-miterlimit:10;}
	.st1{fill:#3B97D3;}
	.st2{fill:#24AE5F;}
	.st3{opacity:0.9;fill:#ECF0F1;}
</style>
<circle class="st0" cx="-116.7" cy="95.2" r="81.4"/>
<path class="st1" d="M29.8,15c0,4.5-2.1,8.6-5.3,11.3c-2,1.7-4.4,2.8-7,3.3c-0.8,0.2-1.7,0.2-2.5,0.2c-1.3,0-2.6-0.2-3.8-0.5
	c-2.5-0.7-4.7-1.9-6.4-3.6C1.9,23,0.2,19.2,0.2,15c0-4.5,2-8.5,5.1-11.2c0.9-0.7,1.8-1.4,2.8-1.9c0,0,0,0,0,0c2-1.1,4.4-1.7,6.8-1.7
	c3.4,0,6.6,1.1,9.1,3.1c0.4,0.3,0.8,0.7,1.2,1.1c2,1.9,3.5,4.5,4.1,7.3c0.2,1,0.4,2,0.4,3.1C29.8,14.8,29.8,14.9,29.8,15z"/>
<path class="st2" d="M6.3,9.4c-1.9,3.8-2.8,5-1.9,6.3c0.9,1.3-1.5,1.3-1.5,1.3s-1.4,0.6-0.6,1.4c0.8,0.9,2.6,0.9,2.9,2.8
	c0.2,1.4,1,3.4-0.5,4.4C1.9,23,0.2,19.2,0.2,15c0-4.5,2-8.5,5.1-11.2C6.5,5.6,7.1,7.7,6.3,9.4z"/>
<path class="st2" d="M11.6,9.8c0,0.1,0,0.4-0.1,0.4c-0.1,0.1-0.3,0.1-0.4,0.1c-0.1,0-0.2-0.1-0.2-0.2c0-0.2-0.1-0.3-0.1-0.4
	c0-0.1,0.2-0.4,0.3-0.4C11.4,9.4,11.8,9.1,11.6,9.8z"/>
<path class="st2" d="M12.3,9.3c0,0.1,0,0.2,0,0.2s-0.1,0-0.2,0S12,9.5,12,9.5c0-0.1-0.1-0.1,0-0.2c0,0,0.1-0.2,0.1-0.2
	C12.2,9.1,12.4,9,12.3,9.3z"/>
<path class="st3" d="M11.3,2.3c0,0.1,0,0.2,0,0.2s-0.1,0-0.2,0c0,0-0.1,0-0.1-0.1c0-0.1-0.1-0.1,0-0.2c0,0,0.1-0.2,0.1-0.2
	C11.2,2.1,11.4,2,11.3,2.3z"/>
<path class="st2" d="M18,4.3c0,0.1,0,0.2,0,0.2c0,0-0.1,0-0.2,0c0,0-0.1,0-0.1-0.1c0-0.1-0.1-0.1,0-0.2c0,0,0.1-0.2,0.1-0.2
	C17.9,4.2,18.1,4,18,4.3z"/>
<path class="st2" d="M15,13.5c0,0.1,0,0.2,0,0.2c0,0-0.1,0-0.2,0c0,0-0.1,0-0.1-0.1c0-0.1-0.1-0.1,0-0.2c0,0,0.1-0.2,0.1-0.2
	C14.9,13.3,15.1,13.2,15,13.5z"/>
<path class="st2" d="M15.6,13.5c0,0,0,0.1,0,0.1c0,0-0.1,0-0.1,0c0,0,0,0,0-0.1c0,0,0-0.1,0-0.1c0,0,0-0.1,0.1-0.1
	C15.5,13.4,15.6,13.3,15.6,13.5z"/>
<path class="st2" d="M4.8,18.6c0,0,0,0.1,0,0.1c0,0-0.1,0-0.1,0c0,0,0,0,0-0.1c0,0,0-0.1,0-0.1c0,0,0-0.1,0.1-0.1S4.9,18.4,4.8,18.6
	z"/>
<path class="st2" d="M6.3,21.9c0,0,0,0.1,0,0.1s-0.1,0-0.1,0c0,0,0,0,0-0.1c0,0,0-0.1,0-0.1c0,0,0-0.1,0.1-0.1S6.3,21.7,6.3,21.9z"
	/>
<path class="st3" d="M10.6,27.5c0,0,0,0.1,0,0.1c0,0-0.1,0-0.1,0c0,0,0,0,0-0.1c0,0,0-0.1,0-0.1c0,0,0-0.1,0.1-0.1
	C10.5,27.4,10.6,27.3,10.6,27.5z"/>
<path class="st2" d="M17.9,19.5c0,0,0,0.1,0,0.1c0,0-0.1,0-0.1,0s0,0,0-0.1c0,0,0-0.1,0-0.1c0,0,0-0.1,0.1-0.1
	C17.9,19.4,18,19.3,17.9,19.5z"/>
<path class="st2" d="M25.1,15.7c0,0,0,0.1,0,0.1c0,0-0.1,0-0.1,0c0,0,0,0,0-0.1c0,0,0-0.1,0-0.1c0,0,0-0.1,0.1-0.1
	C25,15.6,25.1,15.6,25.1,15.7z"/>
<path class="st2" d="M19.3,12.9c0,0,0,0.1,0,0.1c0,0-0.1,0-0.1,0c0,0,0,0,0-0.1c0,0,0-0.1,0-0.1c0,0,0-0.1,0.1-0.1
	S19.3,12.7,19.3,12.9z"/>
<path class="st3" d="M11.8,3.1c0,0,0,0.1,0,0.1c0,0-0.1,0-0.1,0c0,0,0,0,0-0.1c0,0,0-0.1,0-0.1c0,0,0-0.1,0.1-0.1
	C11.7,3,11.8,3,11.8,3.1z"/>
<path class="st2" d="M5.4,13.6c0,0,0,0.1,0,0.1c0,0-0.1,0-0.1,0c0,0,0,0,0-0.1c0,0,0-0.1,0-0.1c0,0,0-0.1,0.1-0.1S5.4,13.4,5.4,13.6
	z"/>
<path class="st2" d="M22.7,8.2c0,0.3,0.2,0.8,0.1,1s-0.6,0.3-0.8,0.4c-0.2,0.1-0.6,0-0.7,0.2s0-0.3,0.2-0.6s0.2-0.6,0-0.8
	c-0.2-0.2-0.2-1,0.1-1C21.9,7.4,22.7,6.6,22.7,8.2z"/>
<path class="st2" d="M23.4,8c0.3,0.4,0.2,1.3,0.4,1.5c0.3,0.2,0.4,0.1,0.7,0.1c0.2,0,0.5-0.1,0.6-0.3c0.1-0.1,0.6-0.2,0.2-0.5
	c-0.4-0.3-0.7-0.7-0.7-1.1c0-0.4-0.4-1.5-0.7-1.5C23.6,6.3,21.8,6.2,23.4,8z"/>
<path class="st2" d="M16.3,24.2c0,0-0.1-0.2-0.1,0c-0.1,0.1-0.1,0.3-0.3,0.4c-0.1,0-0.2,0.1-0.3,0.2s0.1,0.4,0.2,0.4
	c0.1,0,0.3,0,0.3-0.1c-0.1-0.1,0.3-0.4,0.3-0.4S16.7,24.3,16.3,24.2z"/>
<path class="st3" d="M11.9,27.7c0,0-0.1-0.2-0.1,0S11.7,28,11.5,28c-0.1,0-0.2,0.1-0.3,0.2c0,0.2,0.1,0.4,0.2,0.4
	c0.1,0,0.3,0,0.3-0.1c-0.1-0.1,0.3-0.4,0.3-0.4S12.4,27.8,11.9,27.7z"/>
<path class="st2" d="M16.6,25.1C16.6,25.1,16.5,25.1,16.6,25.1c0,0.1,0.1,0.1,0.1,0.1c0,0,0,0.1,0.1,0.1s0.1,0,0.1,0
	c0,0,0-0.1,0-0.1S16.7,25,16.7,25S16.6,24.9,16.6,25.1z"/>
<path class="st2" d="M29.8,15c0,4.5-2.1,8.6-5.3,11.3c-0.2,0-0.5-0.1-0.7-0.2c-3.8-1.9-6.4,2-4.6-3.3c0,0,0.4-4-0.8-6.4
	s-0.6-3.8,1.6-2.4c2.1,1.4,4.6,1.8,4.6,3.1c0.1,1.3,2.9-0.2,3.6-1.3c0.2-0.4,0.8-0.8,1.5-1.1C29.8,14.8,29.8,14.9,29.8,15z"/>
<path class="st3" d="M24.1,3.3c-1.4,0.4-3.7,0.1-3.2-0.4c0.8-0.9-2.2-1.7-2.4-1c-0.3,0.7-2.2,0.8-2.9,0.6c-0.8-0.2-1.8,0.2-2.8-0.6
	c-1.1-0.8-1.5-0.6-2.5-0.6c-0.8,0.6-1.5,0.7-2,0.6c2-1.1,4.4-1.7,6.8-1.7C18.4,0.2,21.6,1.3,24.1,3.3z"/>
<path class="st3" d="M17.5,29.6c-0.8,0.2-1.7,0.2-2.5,0.2c-1.3,0-2.6-0.2-3.8-0.5c1.5-0.6,2.4-1.2,2.1-1.5c-0.7-0.4,2.6-0.4,3.9,1.6
	C17.2,29.5,17.4,29.5,17.5,29.6z"/>
<path class="st2" d="M11.7,10.4c-0.7,0.5-2-0.2-2.3,1c-0.3,1.1,0.8,2.3,0.5,2.9S9.2,17.5,8.7,18c-0.5,0.5,4,1.9,4.6,0.5
	c0.6-1.4,3.5-1.1,1.9-3.5S14.8,13,14.8,13s2.7,0.5,2.4-0.9S15.6,7.7,11.7,10.4z"/>
<path class="st2" d="M29.4,11.6c-0.6,0.1-1.1,0.3-1.6,0.4c-1.9,0.4-0.5-1.3-0.5-1.3s0-1,0-1.4c0-0.4-2.2-2.9-2.3-4
	c0-0.4,0.1-0.7,0.3-1C27.3,6.3,28.8,8.8,29.4,11.6z"/>
<path class="st2" d="M15-55.7c0,0.1,0,0.2,0,0.2c0,0-0.1,0-0.2,0s-0.1,0-0.1-0.1c0-0.1-0.1-0.1,0-0.2c0,0,0.1-0.2,0.1-0.2
	S15.1-56,15-55.7z"/>
</svg>
